<svg width="640" height="640" viewBox="0 0 640 640" fill="none" xmlns="http://www.w3.org/2000/svg">
<path d="M323.935 22.9917C353.425 105.916 448.149 145.152 527.635 107.367L537.794 102.538L532.965 112.697C495.181 192.185 534.416 286.909 617.34 316.397L627.938 320.166L617.34 323.935C534.416 353.425 495.18 448.148 532.965 527.635L537.794 537.794L527.635 532.965C448.147 495.181 353.423 534.416 323.935 617.34L320.166 627.938L316.397 617.34C286.907 534.416 192.184 495.18 112.697 532.965L102.538 537.794L107.367 527.635C145.151 448.147 105.916 353.423 22.9917 323.935L12.3931 320.166L22.9917 316.397C105.916 286.907 145.152 192.183 107.367 112.697L102.538 102.538L112.697 107.367C192.185 145.151 286.909 105.916 316.397 22.9917L320.166 12.3931L323.935 22.9917Z" fill="black" stroke="black" stroke-width="8"/>
<path d="M318.166 21.3315C348.45 106.489 445.725 146.783 527.352 107.979C488.551 189.609 528.842 286.884 614 317.166C528.842 347.45 488.549 444.725 527.352 526.352C445.723 487.551 348.448 527.842 318.166 613C287.882 527.842 190.607 487.549 108.979 526.352C147.781 444.723 107.489 347.448 22.3315 317.166C107.489 286.882 147.783 189.607 108.979 107.979C190.609 146.781 287.884 106.489 318.166 21.3315Z" fill="#FFE099" stroke="black" stroke-width="3"/>
<ellipse cx="261.166" cy="258.333" rx="20" ry="37.3333" fill="black"/>
<ellipse cx="375.166" cy="258.333" rx="20" ry="37.3333" fill="black"/>
</svg>
